<?xml version="1.0" standalone="no"?>
<!DOCTYPE svg PUBLIC "-//W3C//DTD SVG 20010904//EN">
<svg version="1.0" xmlns="http://www.w3.org/2000/svg"
 width="3000.000000pt" height="3000.000000pt" viewBox="0 0 3000.000000 3000.000000"
 preserveAspectRatio="xMidYMid meet">
<metadata>
Created by potrace 1.11, written by Peter Selinger 2001-2013
</metadata>
<g transform="translate(0.000000,3000.000000) scale(0.100000,-0.100000)"
fill="#000000" stroke="none">
<path d="M14730 28327 c-3 -3 -41 -7 -85 -11 -76 -6 -107 -10 -165 -21 -52
-11 -75 -15 -114 -21 -22 -3 -43 -7 -47 -9 -3 -2 -19 -6 -35 -9 -121 -22 -382
-115 -559 -200 -326 -156 -578 -338 -860 -621 -254 -253 -298 -315 -648 -920
-99 -170 -188 -326 -199 -345 -11 -19 -123 -213 -248 -430 -125 -217 -237
-411 -247 -430 -36 -64 -83 -145 -93 -160 -5 -8 -31 -53 -58 -100 -27 -47
-102 -177 -167 -290 -65 -113 -123 -214 -129 -225 -6 -11 -16 -27 -22 -35 -7
-8 -25 -39 -40 -68 -16 -29 -34 -61 -39 -70 -6 -9 -37 -64 -70 -122 -33 -57
-64 -112 -70 -122 -5 -9 -46 -79 -90 -155 -44 -76 -88 -154 -99 -173 -10 -19
-27 -47 -37 -62 -11 -14 -19 -29 -19 -33 0 -3 -15 -29 -33 -58 -18 -29 -38
-63 -45 -77 -7 -14 -20 -38 -30 -55 -11 -16 -53 -88 -94 -160 -226 -391 -718
-1245 -735 -1275 -11 -19 -35 -60 -53 -90 -18 -30 -44 -75 -58 -100 -42 -75
-57 -101 -112 -195 -29 -49 -63 -108 -75 -130 -13 -22 -45 -78 -72 -125 -89
-153 -279 -482 -367 -635 -47 -82 -90 -157 -95 -165 -6 -8 -22 -37 -37 -65
-14 -27 -31 -57 -38 -65 -6 -8 -16 -24 -22 -35 -11 -20 -189 -329 -302 -525
-66 -115 -78 -123 -133 -92 -19 11 -169 97 -334 192 -1061 613 -963 558 -973
543 -9 -15 -8 -6131 2 -6140 7 -8 44 11 213 110 68 40 140 81 161 92 20 11 39
23 40 28 2 4 8 7 13 7 6 0 49 23 97 51 48 29 103 61 122 72 19 10 91 52 160
92 69 40 141 82 160 92 19 11 91 53 160 93 69 40 143 83 165 95 22 13 96 56
165 96 69 39 170 98 225 129 55 31 141 81 190 110 50 29 110 64 135 78 25 13
70 39 100 57 30 18 74 44 96 56 66 38 467 270 484 280 70 42 553 319 557 319
3 0 17 8 31 19 15 10 162 96 327 191 346 199 678 390 950 548 105 60 309 178
455 262 146 84 280 161 298 172 l34 21 -44 28 c-23 15 -320 187 -658 382 -338
195 -627 365 -643 378 l-27 24 41 70 c56 95 94 161 255 440 75 132 177 308
225 390 48 83 96 166 107 185 11 19 60 105 109 190 177 304 243 419 261 452
11 18 45 78 77 133 32 55 83 143 113 195 30 52 62 109 72 125 21 36 403 704
435 760 12 22 35 63 50 90 59 104 322 561 469 815 56 96 140 240 186 320 46
80 130 224 185 320 608 1046 795 1369 823 1420 54 97 97 155 157 215 231 231
602 269 875 88 71 -47 112 -85 164 -153 40 -52 58 -81 129 -210 16 -30 36 -62
43 -71 8 -8 14 -19 14 -22 0 -4 20 -40 43 -80 40 -66 93 -157 145 -247 11 -19
69 -120 130 -225 492 -852 709 -1227 730 -1265 14 -25 33 -57 43 -72 11 -14
19 -28 19 -31 0 -4 74 -133 173 -302 23 -38 42 -72 42 -75 0 -3 8 -16 16 -30
18 -27 113 -191 149 -255 25 -44 115 -201 130 -225 9 -16 137 -237 176 -307
13 -23 53 -92 89 -153 36 -61 65 -115 65 -121 0 -5 5 -9 10 -9 6 0 10 -5 10
-10 0 -6 56 -106 124 -223 113 -195 199 -344 233 -407 8 -14 22 -37 31 -52 9
-15 82 -141 162 -279 80 -139 164 -284 187 -323 23 -39 53 -93 68 -121 15 -27
36 -62 46 -77 11 -14 19 -28 19 -31 0 -3 19 -38 43 -79 24 -40 46 -80 50 -88
4 -8 16 -28 26 -45 10 -16 95 -163 188 -325 128 -222 175 -296 191 -298 22 -3
32 2 232 118 69 40 195 113 280 162 85 49 162 94 170 99 29 17 385 222 429
247 25 14 68 38 95 55 28 16 65 37 81 47 17 9 179 103 360 207 182 105 346
200 365 210 19 11 58 34 85 51 28 17 68 40 90 51 22 12 119 68 215 124 152 90
175 106 172 126 -1 13 -38 84 -81 159 -43 76 -154 268 -246 427 -92 160 -179
310 -193 335 -45 80 -203 353 -233 403 -16 27 -29 50 -29 52 0 3 -17 33 -38
67 -21 35 -52 88 -69 118 -17 30 -72 127 -123 215 -51 88 -101 174 -110 190
-9 17 -50 87 -90 155 -40 69 -83 143 -95 165 -12 22 -48 85 -80 140 -32 55
-66 114 -75 130 -17 30 -210 365 -435 755 -322 557 -365 633 -365 641 0 5 -4
9 -10 9 -5 0 -10 4 -10 9 0 5 -140 252 -312 548 -171 296 -319 552 -328 568
-9 17 -73 127 -142 245 -69 118 -160 276 -203 350 -126 218 -214 369 -305 525
-29 50 -60 104 -70 120 -9 17 -87 149 -172 295 -85 146 -159 274 -165 285 -37
64 -193 318 -222 360 -445 635 -1063 1037 -1821 1184 -102 20 -136 25 -230 37
-25 3 -58 8 -75 11 -36 6 -589 16 -595 10z"/>
<path d="M22338 27845 c-1 -1 -50 -6 -108 -9 -58 -3 -121 -9 -140 -12 -99 -15
-215 -36 -220 -39 -4 -2 -21 -7 -38 -10 -105 -18 -343 -110 -482 -186 -515
-280 -874 -720 -1045 -1285 -85 -279 -107 -569 -69 -894 25 -216 125 -527 229
-710 19 -34 35 -64 35 -67 0 -2 29 -48 64 -101 226 -340 514 -593 869 -762
162 -78 356 -143 502 -169 33 -6 69 -13 80 -15 11 -2 52 -7 90 -11 39 -4 84
-9 100 -11 42 -5 285 -5 315 0 14 3 52 7 85 10 33 3 70 8 81 10 12 3 39 7 60
10 241 39 553 165 794 323 143 94 196 138 335 278 349 349 570 817 613 1295
13 149 6 427 -13 520 -2 13 -7 42 -11 65 -12 85 -86 358 -103 379 -5 6 -14 29
-21 51 -28 88 -220 434 -259 465 -3 3 -19 23 -35 45 -72 97 -266 293 -372 374
-162 125 -340 226 -534 304 -77 31 -276 92 -327 100 -15 3 -55 10 -88 15 -106
19 -128 21 -245 27 -63 4 -120 8 -127 10 -6 2 -13 2 -15 0z m192 -530 c90 -9
271 -49 355 -78 470 -163 841 -532 1005 -1002 28 -80 49 -151 56 -192 2 -13 6
-33 8 -45 36 -201 36 -417 2 -584 -2 -12 -7 -37 -10 -55 -9 -56 -51 -189 -91
-284 -222 -539 -748 -933 -1325 -991 -97 -10 -275 -11 -320 -3 -19 4 -60 10
-90 13 -30 4 -75 11 -100 16 -25 6 -56 13 -70 16 -91 20 -318 114 -405 167
-347 213 -576 485 -710 842 -68 183 -98 352 -99 555 -1 314 60 542 228 845 37
68 159 225 230 297 275 279 644 456 1010 485 39 3 72 6 73 7 5 4 188 -2 253
-9z"/>
<path d="M21630 26621 c-1 -125 -1 -1826 -1 -1858 l1 -33 200 0 200 0 0 395 0
395 169 0 170 0 22 -32 c13 -18 28 -38 34 -45 5 -7 61 -83 123 -170 62 -87
175 -243 251 -348 l137 -190 232 -3 c128 -1 232 0 232 3 0 4 -141 204 -163
230 -22 27 -420 581 -424 590 -2 6 22 22 54 35 209 85 330 264 339 500 8 219
-92 400 -281 505 -56 31 -151 66 -220 81 -16 3 -265 7 -552 9 l-523 2 0 -66z
m1010 -306 c70 -23 134 -85 150 -145 42 -154 -40 -281 -196 -304 -32 -5 -452
-10 -541 -7 l-23 1 0 234 c0 147 4 236 10 238 5 2 131 2 279 2 226 -1 277 -4
321 -19z"/>
<path d="M21173 14636 l0 -3084 26 11 c23 10 338 190 431 246 19 11 41 24 49
28 14 6 342 195 371 212 143 89 487 278 496 273 12 -7 64 -78 64 -87 0 -2 38
-68 83 -147 46 -79 171 -294 277 -478 106 -184 203 -352 216 -372 13 -21 24
-40 24 -42 0 -2 27 -49 59 -104 32 -55 72 -124 88 -154 17 -29 54 -93 83 -143
29 -49 62 -108 75 -130 13 -22 71 -123 130 -225 109 -187 129 -222 165 -285
11 -19 28 -50 39 -67 10 -18 34 -60 53 -93 64 -112 750 -1290 779 -1338 16
-26 29 -50 29 -54 0 -3 6 -14 14 -22 7 -9 27 -41 43 -71 17 -30 123 -216 237
-413 113 -197 206 -363 206 -368 0 -5 5 -9 10 -9 6 0 10 -4 10 -10 0 -5 41
-81 91 -167 51 -87 102 -176 114 -198 53 -92 356 -621 364 -635 34 -55 214
-374 234 -415 45 -92 60 -162 61 -285 0 -130 -14 -198 -65 -306 -18 -38 -35
-71 -38 -74 -4 -3 -24 -29 -45 -57 -82 -115 -215 -202 -375 -246 l-76 -20
-3502 -1 c-1926 -1 -3505 -5 -3510 -9 -13 -14 -10 -2963 3 -2982 10 -14 433
-15 4185 -12 2296 2 4192 6 4213 10 22 3 55 9 75 12 47 6 112 17 131 20 8 1
35 6 60 10 25 3 59 10 75 15 17 5 41 11 55 14 78 13 289 80 428 135 304 120
612 309 867 531 79 68 273 268 331 341 32 41 61 76 65 79 3 3 32 43 65 90 290
410 462 843 538 1350 28 184 28 591 1 790 -59 439 -170 750 -428 1205 -111
194 -108 189 -169 295 -299 516 -465 802 -486 840 -13 25 -28 50 -32 55 -4 6
-21 35 -38 65 -16 30 -100 177 -187 325 -86 149 -173 299 -193 335 -19 36 -38
70 -42 75 -19 25 -330 568 -330 576 0 5 -4 9 -10 9 -5 0 -10 5 -10 11 0 6 -27
56 -60 111 -33 54 -60 101 -60 104 0 2 -11 21 -23 42 -13 20 -35 57 -49 82
-14 25 -76 132 -137 238 -61 106 -120 207 -130 225 -10 17 -262 455 -561 972
-299 517 -550 954 -560 970 -9 17 -51 89 -92 160 -42 72 -86 148 -98 170 -13
22 -31 54 -41 70 -11 17 -22 37 -26 45 -4 8 -59 104 -123 215 -64 110 -128
220 -142 245 -14 25 -98 171 -188 325 -178 308 -200 348 -200 368 0 10 161
109 362 222 10 6 158 91 329 190 171 99 323 187 337 195 26 15 121 69 173 100
14 8 49 28 77 44 42 24 71 53 60 61 -4 2 -524 302 -568 327 -19 11 -64 37
-100 58 -36 21 -83 48 -105 60 -102 57 -373 214 -397 231 -15 11 -30 19 -34
19 -4 0 -34 17 -68 38 -34 21 -68 42 -76 46 -8 4 -24 12 -35 19 -11 7 -52 30
-90 52 -39 22 -77 44 -86 50 -9 5 -34 20 -55 32 -22 11 -192 110 -379 218
-187 109 -365 211 -395 228 -30 17 -89 50 -130 74 -41 24 -84 49 -95 56 -11 6
-229 132 -485 280 -256 148 -490 283 -521 301 -57 32 -569 328 -604 349 -52
32 -94 56 -136 80 -56 31 -891 512 -935 538 l-31 19 0 -3084z"/>
<path d="M15211 17208 c-5 -13 -25 -84 -44 -158 -46 -173 -124 -466 -147 -550
-10 -36 -28 -103 -40 -150 -12 -47 -30 -114 -40 -150 -26 -89 -121 -441 -125
-461 -10 -47 -48 -188 -57 -211 -6 -16 -18 -29 -27 -29 -9 -1 -965 -2 -2126
-3 -1160 -1 -2116 -5 -2122 -9 -20 -12 -19 -2120 1 -2136 10 -8 498 -11 1836
-11 1797 0 1863 -1 1845 -30 -2 -4 -22 -76 -45 -161 -22 -85 -56 -212 -75
-284 -55 -206 -107 -399 -109 -410 -2 -5 -8 -30 -15 -55 -7 -25 -53 -196 -102
-380 -50 -184 -97 -358 -105 -387 -10 -38 -20 -54 -37 -59 -12 -4 -733 -8
-1602 -8 -869 -1 -1586 -5 -1592 -9 -10 -6 -13 -231 -13 -1067 0 -1037 0
-1060 19 -1070 13 -7 441 -10 1316 -10 1102 0 1296 -2 1301 -14 4 -11 -110
-458 -196 -766 -21 -78 -70 -259 -84 -313 -23 -93 -31 -87 182 -143 114 -30
268 -71 332 -89 8 -2 74 -19 145 -38 72 -19 175 -47 230 -62 55 -15 147 -40
205 -55 199 -52 535 -143 715 -192 99 -27 192 -51 207 -53 31 -4 47 11 58 57
5 18 23 85 40 148 17 63 33 122 35 130 43 165 246 917 255 947 6 18 13 40 15
50 2 10 20 79 40 153 20 74 41 154 47 177 5 23 15 46 22 52 9 8 650 11 2128
11 1892 0 2117 2 2128 16 19 21 19 2109 1 2127 -9 9 -424 12 -1834 13 -1002 1
-1826 2 -1831 3 -5 1 -6 18 -4 39 5 35 78 315 135 517 14 50 26 97 28 105 2 8
22 85 45 170 23 85 44 162 46 170 1 8 17 65 34 125 16 61 32 119 34 130 3 11
14 52 25 90 10 39 38 142 61 230 23 88 49 168 59 178 16 16 102 17 1601 17
924 0 1591 4 1599 9 12 8 14 164 14 1066 0 808 -3 1059 -12 1068 -9 9 -312 12
-1299 13 -708 1 -1295 2 -1304 3 -10 0 -18 9 -18 19 0 15 30 131 80 312 19 66
112 415 115 430 2 8 27 104 56 213 34 126 49 201 43 207 -8 8 -130 42 -679
190 -44 12 -111 30 -150 40 -38 10 -164 43 -280 75 -115 31 -250 67 -300 80
-190 51 -325 87 -466 125 -171 47 -186 48 -198 18z"/>
<path d="M4900 13772 c-18 -31 -44 -74 -57 -94 -12 -21 -23 -40 -23 -43 0 -2
-18 -34 -40 -70 -22 -36 -40 -68 -40 -70 0 -3 -11 -24 -26 -46 -14 -22 -33
-55 -43 -72 -10 -18 -61 -106 -113 -197 -53 -91 -162 -280 -243 -420 -81 -140
-164 -284 -185 -320 -36 -62 -285 -493 -320 -555 -9 -16 -51 -89 -93 -162 -42
-72 -86 -149 -98 -170 -12 -21 -36 -63 -54 -93 -27 -44 -511 -883 -575 -995
-14 -25 -60 -104 -184 -318 -20 -34 -311 -539 -431 -747 -40 -69 -123 -213
-185 -320 -187 -324 -251 -434 -261 -450 -5 -8 -41 -71 -80 -140 -40 -69 -88
-152 -107 -185 -19 -33 -45 -78 -57 -100 -12 -22 -64 -112 -115 -200 -51 -88
-101 -176 -112 -195 -11 -19 -44 -75 -73 -125 -29 -49 -64 -110 -77 -135 -14
-25 -67 -117 -119 -205 -165 -286 -229 -398 -229 -405 0 -3 -5 -11 -12 -18
-27 -27 -175 -309 -237 -451 -83 -190 -171 -490 -196 -668 -3 -18 -7 -50 -10
-70 -10 -65 -16 -126 -20 -183 -5 -70 -6 -424 -1 -470 2 -19 7 -66 11 -105 9
-100 21 -184 30 -215 2 -8 6 -33 10 -55 14 -99 72 -307 126 -454 194 -527 569
-1022 1051 -1384 154 -115 396 -254 578 -331 36 -15 74 -31 85 -36 23 -11 172
-60 265 -88 114 -35 352 -84 470 -98 19 -2 51 -7 70 -11 19 -4 1913 -8 4209
-10 2988 -3 4179 -7 4188 -15 10 -8 13 -156 13 -768 0 -417 3 -765 6 -774 3
-9 10 -16 16 -16 8 0 151 81 298 169 19 11 60 34 90 51 30 17 71 40 90 51 19
12 125 73 235 136 110 64 211 123 225 131 14 9 27 17 30 17 3 0 50 27 105 59
188 111 330 193 435 253 58 33 161 93 230 133 69 40 145 84 170 98 25 14 57
33 72 43 14 11 29 19 32 19 6 0 332 187 366 210 8 6 22 13 30 17 8 4 32 17 52
29 20 13 72 43 115 67 43 24 278 160 523 302 245 142 461 266 480 277 19 11
64 37 100 58 36 21 83 48 105 61 91 52 142 81 175 101 47 27 425 246 472 272
21 12 79 45 130 75 51 30 107 62 123 71 261 150 569 329 603 350 l43 27 -128
74 c-70 40 -144 82 -163 92 -19 11 -60 34 -90 52 -49 30 -316 185 -402 233
-151 87 -576 333 -627 363 -34 22 -65 39 -68 39 -3 0 -42 22 -87 49 -120 72
-397 231 -403 231 -2 0 -24 14 -48 30 -24 17 -46 30 -48 30 -3 0 -66 36 -142
80 -76 44 -139 80 -140 80 -2 0 -60 34 -129 75 -69 41 -140 82 -158 92 -18 10
-122 70 -231 133 -109 63 -215 124 -235 136 -20 11 -107 61 -192 111 -295 171
-345 200 -390 225 -90 50 -316 182 -352 205 -21 12 -40 23 -44 23 -3 0 -18 8
-32 18 -15 11 -52 33 -82 49 -30 17 -111 63 -180 103 -69 40 -146 85 -171 99
-25 14 -182 105 -347 201 -166 96 -319 184 -339 195 -21 11 -50 29 -65 39 -60
40 -57 80 -58 -766 0 -600 -3 -775 -13 -785 -9 -10 -731 -13 -3402 -15 -1864
-1 -3444 0 -3510 4 -217 10 -354 69 -483 207 -172 184 -240 434 -180 656 24
91 48 139 187 380 63 110 123 216 134 235 10 19 27 49 38 65 10 17 24 42 30
58 6 15 15 27 20 27 5 0 9 4 9 10 0 5 13 31 29 58 15 26 39 68 53 93 14 24 67
116 118 204 51 88 173 300 272 470 98 171 182 317 188 325 9 16 67 114 121
210 29 52 153 264 197 340 12 19 36 62 55 95 18 33 84 148 146 255 63 107 127
220 144 250 16 30 36 62 43 71 8 8 14 18 14 22 0 4 22 44 49 89 64 108 91 156
146 253 25 44 50 87 55 95 13 21 82 140 254 440 81 140 151 262 156 270 9 16
269 465 309 534 13 22 124 214 246 426 122 212 232 401 243 420 11 19 76 134
146 254 l126 220 -22 23 c-12 13 -25 23 -28 23 -4 0 -97 52 -206 116 -110 64
-224 130 -254 147 -30 17 -165 94 -300 172 -289 168 -761 440 -807 466 -17 10
-50 29 -72 43 -22 15 -43 26 -46 26 -3 0 -31 16 -61 35 -30 19 -56 35 -58 35
-2 0 -96 54 -210 120 -114 66 -211 120 -217 120 -5 0 -9 5 -9 10 0 6 -4 10 -9
10 -6 0 -61 30 -123 66 -62 37 -127 73 -144 80 l-30 13 -34 -57z"/>
</g>
</svg>
