<svg viewBox="0 0 24 24" fill="none" xmlns="http://www.w3.org/2000/svg">
<path d="M21.0037 12V19.0029C21.0037 20.1083 20.1084 21.0037 19.0029 21.0037H4.99708C3.89162 21.0037 2.99625 20.1083 2.99625 19.0029V4.99705C2.99625 3.89159 3.89162 2.99622 4.99708 2.99622H12" stroke="currentColor" stroke-width="1.5" stroke-linecap="round" stroke-linejoin="round"/>
<path d="M2.99625 15.0012H7.38008C7.75923 15.0012 8.10538 15.2153 8.27445 15.5545L8.72163 16.4488C8.89171 16.788 9.23785 17.0021 9.61701 17.0021H14.383C14.7622 17.0021 15.1083 16.788 15.2774 16.4488L15.7246 15.5545C15.8946 15.2153 16.2408 15.0012 16.6199 15.0012H21.0037" stroke="currentColor" stroke-width="1.5" stroke-linecap="round" stroke-linejoin="round"/>
<path d="M14.5691 5.56531L12 8.13438L14.5691 10.7034" stroke="currentColor" stroke-width="1.5" stroke-linecap="round" stroke-linejoin="round"/>
<path d="M17.1501 2.99622H18.4347C19.8543 2.99622 21.0037 4.14569 21.0037 5.56529V5.56529C21.0037 6.98488 19.8543 8.13436 18.4347 8.13436H12.013" stroke="currentColor" stroke-width="1.5" stroke-linecap="round" stroke-linejoin="round"/>
</svg>
