<svg viewBox="0 0 36 36" fill="none" xmlns="http://www.w3.org/2000/svg">
<path d="M28.0762 7.92373C33.6412 13.4887 33.6412 22.5113 28.0762 28.0762C22.5113 33.6412 13.4887 33.6412 7.92373 28.0762C2.35876 22.5113 2.35876 13.4887 7.92373 7.92373C13.4887 2.35876 22.5113 2.35876 28.0762 7.92373" stroke="currentColor" stroke-width="2" stroke-linecap="round" stroke-linejoin="round"/>
<path d="M28.0762 7.92373C33.6412 13.4887 33.6412 22.5113 28.0762 28.0762C22.5113 33.6412 13.4887 33.6412 7.92373 28.0762C2.35876 22.5113 2.35876 13.4887 7.92373 7.92373C13.4887 2.35876 22.5113 2.35876 28.0762 7.92373" stroke="currentColor" stroke-width="2" stroke-linecap="round" stroke-linejoin="round"/>
<path d="M18 18C20.1375 14.0655 20.1375 7.6845 18 3.75" stroke="currentColor" stroke-width="2" stroke-linecap="round" stroke-linejoin="round"/>
<path d="M18.0002 18C13.5242 18.117 7.99817 21.306 5.65967 25.125" stroke="currentColor" stroke-width="2" stroke-linecap="round" stroke-linejoin="round"/>
<path d="M18 18C20.3385 21.819 25.8645 25.008 30.3405 25.125" stroke="currentColor" stroke-width="2" stroke-linecap="round" stroke-linejoin="round"/>
<path d="M10.8779 20.271C13.5734 24.672 18.6374 28.596 24.0389 30.8925" stroke="currentColor" stroke-width="2" stroke-linecap="round" stroke-linejoin="round"/>
<path d="M3.81738 16.659C8.54838 13.191 14.4494 10.83 19.5929 10.6965" stroke="currentColor" stroke-width="2" stroke-linecap="round" stroke-linejoin="round"/>
<path d="M23.5288 23.0326C25.9918 18.4981 26.8633 12.1576 26.1628 6.33008" stroke="currentColor" stroke-width="2" stroke-linecap="round" stroke-linejoin="round"/>
</svg>
