<svg viewBox="0 0 17 16" fill="none" xmlns="http://www.w3.org/2000/svg">
<path d="M8.11637 12.6667C8.24823 12.6667 8.37712 12.6276 8.48675 12.5543C8.59639 12.481 8.68184 12.3769 8.73229 12.2551C8.78275 12.1333 8.79595 11.9992 8.77023 11.8699C8.74451 11.7406 8.68101 11.6218 8.58778 11.5286C8.49454 11.4353 8.37575 11.3719 8.24643 11.3461C8.11711 11.3204 7.98307 11.3336 7.86125 11.3841C7.73943 11.4345 7.63531 11.52 7.56206 11.6296C7.48881 11.7392 7.44971 11.8681 7.44971 12C7.44971 12.1768 7.51995 12.3464 7.64497 12.4714C7.76999 12.5964 7.93956 12.6667 8.11637 12.6667ZM11.4497 12.6667C11.5816 12.6667 11.7105 12.6276 11.8201 12.5543C11.9297 12.481 12.0152 12.3769 12.0656 12.2551C12.1161 12.1333 12.1293 11.9992 12.1036 11.8699C12.0778 11.7406 12.0143 11.6218 11.9211 11.5286C11.8279 11.4353 11.7091 11.3719 11.5798 11.3461C11.4504 11.3204 11.3164 11.3336 11.1946 11.3841C11.0728 11.4345 10.9686 11.52 10.8954 11.6296C10.8221 11.7392 10.783 11.8681 10.783 12C10.783 12.1768 10.8533 12.3464 10.9783 12.4714C11.1033 12.5964 11.2729 12.6667 11.4497 12.6667ZM11.4497 9.99999C11.5816 9.99999 11.7105 9.96089 11.8201 9.88764C11.9297 9.81438 12.0152 9.71026 12.0656 9.58844C12.1161 9.46663 12.1293 9.33258 12.1036 9.20326C12.0778 9.07394 12.0143 8.95515 11.9211 8.86192C11.8279 8.76868 11.7091 8.70519 11.5798 8.67947C11.4504 8.65374 11.3164 8.66694 11.1946 8.7174C11.0728 8.76786 10.9686 8.85331 10.8954 8.96294C10.8221 9.07257 10.783 9.20147 10.783 9.33332C10.783 9.51013 10.8533 9.6797 10.9783 9.80473C11.1033 9.92975 11.2729 9.99999 11.4497 9.99999ZM8.11637 9.99999C8.24823 9.99999 8.37712 9.96089 8.48675 9.88764C8.59639 9.81438 8.68184 9.71026 8.73229 9.58844C8.78275 9.46663 8.79595 9.33258 8.77023 9.20326C8.74451 9.07394 8.68101 8.95515 8.58778 8.86192C8.49454 8.76868 8.37575 8.70519 8.24643 8.67947C8.11711 8.65374 7.98307 8.66694 7.86125 8.7174C7.73943 8.76786 7.63531 8.85331 7.56206 8.96294C7.48881 9.07257 7.44971 9.20147 7.44971 9.33332C7.44971 9.51013 7.51995 9.6797 7.64497 9.80473C7.76999 9.92975 7.93956 9.99999 8.11637 9.99999ZM12.783 1.99999H12.1164V1.33332C12.1164 1.15651 12.0461 0.986943 11.9211 0.861919C11.7961 0.736894 11.6265 0.666656 11.4497 0.666656C11.2729 0.666656 11.1033 0.736894 10.9783 0.861919C10.8533 0.986943 10.783 1.15651 10.783 1.33332V1.99999H5.44971V1.33332C5.44971 1.15651 5.37947 0.986943 5.25444 0.861919C5.12942 0.736894 4.95985 0.666656 4.78304 0.666656C4.60623 0.666656 4.43666 0.736894 4.31164 0.861919C4.18661 0.986943 4.11637 1.15651 4.11637 1.33332V1.99999H3.44971C2.91927 1.99999 2.41057 2.2107 2.03549 2.58578C1.66042 2.96085 1.44971 3.46956 1.44971 3.99999V13.3333C1.44971 13.8638 1.66042 14.3725 2.03549 14.7475C2.41057 15.1226 2.91927 15.3333 3.44971 15.3333H12.783C13.3135 15.3333 13.8222 15.1226 14.1973 14.7475C14.5723 14.3725 14.783 13.8638 14.783 13.3333V3.99999C14.783 3.46956 14.5723 2.96085 14.1973 2.58578C13.8222 2.2107 13.3135 1.99999 12.783 1.99999ZM13.4497 13.3333C13.4497 13.5101 13.3795 13.6797 13.2544 13.8047C13.1294 13.9298 12.9599 14 12.783 14H3.44971C3.2729 14 3.10333 13.9298 2.9783 13.8047C2.85328 13.6797 2.78304 13.5101 2.78304 13.3333V7.33332H13.4497V13.3333ZM13.4497 5.99999H2.78304V3.99999C2.78304 3.82318 2.85328 3.65361 2.9783 3.52858C3.10333 3.40356 3.2729 3.33332 3.44971 3.33332H4.11637V3.99999C4.11637 4.1768 4.18661 4.34637 4.31164 4.47139C4.43666 4.59642 4.60623 4.66666 4.78304 4.66666C4.95985 4.66666 5.12942 4.59642 5.25444 4.47139C5.37947 4.34637 5.44971 4.1768 5.44971 3.99999V3.33332H10.783V3.99999C10.783 4.1768 10.8533 4.34637 10.9783 4.47139C11.1033 4.59642 11.2729 4.66666 11.4497 4.66666C11.6265 4.66666 11.7961 4.59642 11.9211 4.47139C12.0461 4.34637 12.1164 4.1768 12.1164 3.99999V3.33332H12.783C12.9599 3.33332 13.1294 3.40356 13.2544 3.52858C13.3795 3.65361 13.4497 3.82318 13.4497 3.99999V5.99999ZM4.78304 9.99999C4.91489 9.99999 5.04379 9.96089 5.15342 9.88764C5.26305 9.81438 5.3485 9.71026 5.39896 9.58844C5.44942 9.46663 5.46262 9.33258 5.4369 9.20326C5.41117 9.07394 5.34768 8.95515 5.25444 8.86192C5.16121 8.76868 5.04242 8.70519 4.9131 8.67947C4.78378 8.65374 4.64974 8.66694 4.52792 8.7174C4.4061 8.76786 4.30198 8.85331 4.22873 8.96294C4.15547 9.07257 4.11637 9.20147 4.11637 9.33332C4.11637 9.51013 4.18661 9.6797 4.31164 9.80473C4.43666 9.92975 4.60623 9.99999 4.78304 9.99999ZM4.78304 12.6667C4.91489 12.6667 5.04379 12.6276 5.15342 12.5543C5.26305 12.481 5.3485 12.3769 5.39896 12.2551C5.44942 12.1333 5.46262 11.9992 5.4369 11.8699C5.41117 11.7406 5.34768 11.6218 5.25444 11.5286C5.16121 11.4353 5.04242 11.3719 4.9131 11.3461C4.78378 11.3204 4.64974 11.3336 4.52792 11.3841C4.4061 11.4345 4.30198 11.52 4.22873 11.6296C4.15547 11.7392 4.11637 11.8681 4.11637 12C4.11637 12.1768 4.18661 12.3464 4.31164 12.4714C4.43666 12.5964 4.60623 12.6667 4.78304 12.6667Z" fill="currentColor"/>
</svg>
