<svg viewBox="0 0 36 36" fill="none" xmlns="http://www.w3.org/2000/svg">
<path fill-rule="evenodd" clip-rule="evenodd" d="M11.244 4.5H24.7575C28.4805 4.5 31.5 7.518 31.5 11.244V24.7575C31.5 28.4805 28.482 31.5 24.756 31.5H11.244C7.5195 31.5 4.5 28.482 4.5 24.756V11.244C4.5 7.5195 7.518 4.5 11.244 4.5V4.5Z" stroke="currentColor" stroke-width="2" stroke-linecap="round" stroke-linejoin="round"/>
<path d="M25.4236 10.0694C25.1446 10.0709 24.9181 10.2974 24.9181 10.5764C24.9181 10.8554 25.1461 11.0819 25.4251 11.0819C25.7041 11.0819 25.9306 10.8554 25.9306 10.5764C25.9321 10.2959 25.7041 10.0694 25.4236 10.0694" stroke="currentColor" stroke-width="2" stroke-linecap="round" stroke-linejoin="round"/>
<path d="M21.8185 14.1815C23.9273 16.2903 23.9273 19.7094 21.8185 21.8182C19.7096 23.9271 16.2906 23.9271 14.1817 21.8182C12.0729 19.7094 12.0729 16.2903 14.1817 14.1815C16.2906 12.0726 19.7096 12.0726 21.8185 14.1815" stroke="currentColor" stroke-width="2" stroke-linecap="round" stroke-linejoin="round"/>
</svg>
