<svg viewBox="0 0 28 29" fill="none" xmlns="http://www.w3.org/2000/svg">
<path d="M11.667 11.1973C10.61 9.75292 8.92766 8.79858 7.00033 8.79858V8.79858C3.77916 8.79858 1.16699 11.4108 1.16699 14.6319V14.6319C1.16699 17.8531 3.77916 20.4653 7.00033 20.4653V20.4653V20.4653C9.17149 20.4653 11.184 19.3254 12.3005 17.4646L14.0003 14.6319L15.7002 11.7993C16.8167 9.93842 18.8292 8.79858 21.0003 8.79858V8.79858V8.79858C24.2215 8.79858 26.8337 11.4108 26.8337 14.6319V14.6319C26.8337 17.8531 24.2215 20.4653 21.0003 20.4653V20.4653C19.073 20.4653 17.3907 19.5109 16.3337 18.0666" stroke="currentColor" stroke-width="1.5" stroke-linecap="round" stroke-linejoin="round"/>
<path d="M11.5856 7.66455L12.1934 11.1109L8.74707 11.7187" stroke="currentColor" stroke-width="1.5" stroke-linecap="round" stroke-linejoin="round"/>
</svg>
