<svg viewBox="0 0 18 18" fill="none" xmlns="http://www.w3.org/2000/svg">
<path d="M6.87338 7.60908C6.98087 7.71657 6.98087 7.89085 6.87338 7.99834C6.76589 8.10583 6.59161 8.10583 6.48412 7.99834C6.37663 7.89085 6.37663 7.71657 6.48412 7.60908C6.59161 7.50159 6.76589 7.50159 6.87338 7.60908" stroke="currentColor" stroke-linecap="round" stroke-linejoin="round"/>
<path fill-rule="evenodd" clip-rule="evenodd" d="M8.7825 4.7175L14.19 10.125C14.769 10.704 14.769 11.643 14.19 12.222L11.097 15.315C10.518 15.894 9.579 15.894 9 15.315L3.5925 9.9075C3.45375 9.76875 3.375 9.57975 3.375 9.38325V5.24175C3.375 4.83225 3.70725 4.5 4.11675 4.5H8.259C8.4555 4.5 8.64375 4.578 8.7825 4.7175V4.7175Z" stroke="currentColor" stroke-linecap="round" stroke-linejoin="round"/>
<path d="M14.625 7.5L9.7455 2.68275C9.46425 2.40525 9.08625 2.25 8.69175 2.25H5.625" stroke="currentColor" stroke-linecap="round" stroke-linejoin="round"/>
</svg>
