<svg viewBox="0 0 24 24" fill="none" xmlns="http://www.w3.org/2000/svg">
<path d="M20.414 3.586C21.195 4.367 21.195 5.633 20.414 6.414C19.633 7.195 18.367 7.195 17.586 6.414C16.805 5.633 16.805 4.367 17.586 3.586C18.367 2.805 19.634 2.805 20.414 3.586" stroke="currentColor" stroke-width="1.5" stroke-linecap="round" stroke-linejoin="round"/>
<path d="M14 3.287C13.356 3.151 12.689 3.07 12 3.07C7.048 3.07 3 6.712 3 11.251C3 13.934 4.42 16.296 6.599 17.786C6.598 18.64 6.6 19.792 6.6 21L10.13 19.25L10.131 19.254C10.735 19.37 11.359 19.433 12 19.433C16.952 19.433 21 15.79 21 11.251C21 10.811 20.952 10.381 20.876 9.96" stroke="currentColor" stroke-width="1.5" stroke-linecap="round" stroke-linejoin="round"/>
</svg>
