<svg viewBox="0 0 36 36" fill="none" xmlns="http://www.w3.org/2000/svg">
<path fill-rule="evenodd" clip-rule="evenodd" d="M23.0649 24.7532H12.9357C12.1073 24.7532 11.4351 24.0809 11.4351 23.2526V18.0004C11.4351 17.172 12.1073 16.4998 12.9357 16.4998H23.0634C23.8917 16.4998 24.564 17.172 24.564 18.0004V23.2526C24.564 24.0809 23.8917 24.7532 23.0649 24.7532Z" stroke="#323232" stroke-width="1.5" stroke-linecap="round" stroke-linejoin="round"/>
<path d="M18.0003 16.4998V24.7532" stroke="#323232" stroke-width="1.5" stroke-linecap="round" stroke-linejoin="round"/>
<path fill-rule="evenodd" clip-rule="evenodd" d="M25.5034 31.5059H10.4971C7.18225 31.5059 4.49463 28.8183 4.49463 25.5034V10.4971C4.49463 7.18225 7.18225 4.49463 10.4971 4.49463H25.5034C28.8183 4.49463 31.5059 7.18225 31.5059 10.4971V25.5034C31.5059 28.8183 28.8183 31.5059 25.5034 31.5059Z" stroke="#323232" stroke-width="1.5" stroke-linecap="round" stroke-linejoin="round"/>
<path fill-rule="evenodd" clip-rule="evenodd" d="M18.1039 16.4998C18.9668 16.4998 20.7495 16.2206 21.8825 15.0412C22.7169 14.1738 22.7169 12.7662 21.8825 11.8973C21.0482 11.03 19.6961 11.03 18.8618 11.8973C17.5847 13.2269 18.1039 16.4998 18.1039 16.4998Z" stroke="#323232" stroke-width="2" stroke-linecap="round" stroke-linejoin="round"/>
<path fill-rule="evenodd" clip-rule="evenodd" d="M17.8965 16.4996C17.0337 16.4996 15.2509 16.2205 14.1179 15.041C13.2836 14.1736 13.2836 12.766 14.1179 11.8972C14.9523 11.0283 16.3044 11.0298 17.1387 11.8972C18.4157 13.2267 17.8965 16.4996 17.8965 16.4996Z" stroke="#323232" stroke-width="2" stroke-linecap="round" stroke-linejoin="round"/>
</svg>
