<svg viewBox="0 0 36 36" fill="none" xmlns="http://www.w3.org/2000/svg">
<path d="M4.49463 27.9419C6.14532 27.1916 8.24619 27.1916 9.89688 27.9419C11.5476 28.6922 13.6484 28.6922 15.2991 27.9419C16.9498 27.1916 19.0507 27.1916 20.7014 27.9419C22.3521 28.6922 24.4529 28.6922 26.1036 27.9419C27.7543 27.1916 29.8552 27.1916 31.5059 27.9419" stroke="currentColor" stroke-width="2" stroke-linecap="round" stroke-linejoin="round"/>
<path d="M9.89697 32.4436C11.5477 33.1939 13.6485 33.1939 15.2992 32.4436C16.9499 31.6933 19.0508 31.6933 20.7015 32.4436C22.3522 33.1939 24.453 33.1939 26.1037 32.4436" stroke="currentColor" stroke-width="2" stroke-linecap="round" stroke-linejoin="round"/>
<path fill-rule="evenodd" clip-rule="evenodd" d="M21.0015 18.0001V5.60645C21.0015 4.31592 22.6762 3.8087 23.392 4.88315L30.784 15.9728C31.3633 16.8386 30.742 18.0001 29.6991 18.0001H21.0015Z" stroke="currentColor" stroke-width="2" stroke-linecap="round" stroke-linejoin="round"/>
<path d="M16.4996 22.502V4.42551C16.4996 3.01192 14.6658 2.45669 13.881 3.63318L5.78514 15.7777C5.15188 16.7276 5.83166 18.0002 6.97363 18.0002H16.4996" stroke="currentColor" stroke-width="2" stroke-linecap="round" stroke-linejoin="round"/>
<path d="M29.8552 27.4543L31.5059 22.5022H5.62012L8.08714 27.4378" stroke="currentColor" stroke-width="2" stroke-linecap="round" stroke-linejoin="round"/>
</svg>
