<svg viewBox="0 0 62 62" fill="none" xmlns="http://www.w3.org/2000/svg">
<path d="M47.4403 14.5598C56.52 23.6395 56.52 38.3605 47.4403 47.4402C38.3606 56.5199 23.6396 56.5199 14.5599 47.4402C5.48023 38.3605 5.48023 23.6394 14.5599 14.5598C23.6396 5.48008 38.3607 5.48008 47.4403 14.5598" stroke="currentColor" stroke-width="3" stroke-linecap="round" stroke-linejoin="round"/>
<path d="M23.25 24.5417H20.6667" stroke="currentColor" stroke-width="3" stroke-linecap="round" stroke-linejoin="round"/>
<path d="M40.0417 23.25V25.8333" stroke="currentColor" stroke-width="3" stroke-linecap="round" stroke-linejoin="round"/>
<path d="M40.0417 37.9441C40.0417 37.9441 36.6498 41.3334 31 41.3334C25.3477 41.3334 21.9583 37.9441 21.9583 37.9441" stroke="currentColor" stroke-width="3" stroke-linecap="round" stroke-linejoin="round"/>
<path d="M40.0417 37.9441C40.0417 37.9441 36.6498 41.3334 31 41.3334C25.3477 41.3334 21.9583 37.9441 21.9583 37.9441" stroke="currentColor" stroke-width="3" stroke-linecap="round" stroke-linejoin="round"/>
</svg>
