<svg viewBox="0 0 26 26" fill="none" xmlns="http://www.w3.org/2000/svg">
    <path d="M10.8335 2.16667H15.1668" stroke="currentColor" stroke-width="1.5" stroke-linecap="round"
          stroke-linejoin="round"/>
    <path d="M6.87175 7.95494C10.2561 4.5706 15.7442 4.5706 19.1286 7.95494C22.5129 11.3393 22.5129 16.8274 19.1286 20.2118C15.7442 23.5961 10.2561 23.5961 6.87175 20.2118C3.48741 16.8274 3.48741 11.3393 6.87175 7.95494"
          stroke="currentColor" stroke-width="1.5" stroke-linecap="round" stroke-linejoin="round"/>
    <path d="M13.0023 13.5417C12.7012 13.5417 12.4585 13.7844 12.4585 14.0834C12.4585 14.3824 12.7012 14.625 13.0002 14.625C13.2992 14.625 13.5418 14.3824 13.5418 14.0834C13.544 13.7844 13.3013 13.5417 13.0023 13.5417"
          stroke="currentColor" stroke-width="1.5" stroke-linecap="round" stroke-linejoin="round"/>
    <path d="M18.3139 13.1029C18.3779 13.4203 18.4169 13.7464 18.4169 14.0833" stroke="currentColor" stroke-width="1.5"
          stroke-linecap="round" stroke-linejoin="round"/>
    <path d="M13.3794 13.7042L16.8352 10.2484" stroke="currentColor" stroke-width="1.5" stroke-linecap="round"
          stroke-linejoin="round"/>
    <path d="M21.6668 5.41669L19.1318 7.95169" stroke="currentColor" stroke-width="1.5" stroke-linecap="round"
          stroke-linejoin="round"/>
    <path d="M20.5835 4.33331L22.7502 6.49998" stroke="currentColor" stroke-width="1.5" stroke-linecap="round"
          stroke-linejoin="round"/>
    <path d="M7.5835 14.0834C7.5835 11.0923 10.0091 8.66669 13.0002 8.66669C13.3371 8.66669 13.6632 8.70569 13.9806 8.7696"
          stroke="currentColor" stroke-width="1.5" stroke-linecap="round" stroke-linejoin="round"/>
</svg>
