<svg viewBox="0 0 36 36" fill="none" xmlns="http://www.w3.org/2000/svg">
<path d="M18.4817 20.0337L21.1142 21.4167C21.6272 21.6867 22.2257 21.2502 22.1282 20.6802L21.6257 17.7492L23.7557 15.6747C24.1712 15.2712 23.9417 14.5662 23.3687 14.4837L20.4257 14.0562L19.1102 11.3892C18.8537 10.8703 18.1127 10.8703 17.8577 11.3892L16.5422 14.0577L13.5992 14.4852C13.0262 14.5692 12.7967 15.2727 13.2122 15.6762L15.3422 17.7507L14.8382 20.6817C14.7407 21.2517 15.3392 21.6867 15.8522 21.4182L18.4847 20.0352" stroke="#323232" stroke-width="2" stroke-linecap="round" stroke-linejoin="round"/>
<path fill-rule="evenodd" clip-rule="evenodd" d="M13.4322 26.598C13.4787 26.595 13.5252 26.5935 13.5717 26.5935C14.1702 26.5935 14.7462 26.832 15.1692 27.2595C15.6252 27.72 15.8607 28.356 15.8157 29.0025C15.6147 31.8285 13.5807 33.846 10.7532 34.0215C10.7067 34.0245 10.6602 34.026 10.6137 34.026C10.0152 34.026 9.4392 33.7875 9.0162 33.36C8.5602 32.8995 8.3247 32.2635 8.3697 31.617C8.5707 28.791 10.6047 26.7735 13.4322 26.598ZM13.5716 28.8435C13.4531 30.525 12.2981 31.671 10.6151 31.776C10.7336 30.093 11.8886 28.9485 13.5716 28.8435Z" fill="#323232"/>
<path fill-rule="evenodd" clip-rule="evenodd" d="M1.98759 22.0979C3.02859 21.1784 4.26759 20.6924 5.56809 20.6924C6.85359 20.6924 8.08059 21.1679 9.11559 22.0679C9.60609 22.4939 9.88809 23.1104 9.89109 23.7584C9.89409 24.4079 9.61659 25.0259 9.13059 25.4549C8.08959 26.3744 6.85209 26.8604 5.55159 26.8604C4.26609 26.8604 3.03909 26.3849 2.00259 25.4849C1.51209 25.0589 1.23009 24.4424 1.22709 23.7944C1.22409 23.1449 1.50159 22.5269 1.98759 22.0979ZM7.64258 23.7674C7.00958 23.2169 6.28808 22.9424 5.56808 22.9424C4.84058 22.9424 4.11308 23.2229 3.47708 23.7839C4.11008 24.3344 4.83158 24.6089 5.55158 24.6089C6.27908 24.6089 7.00658 24.3284 7.64258 23.7674Z" fill="#323232"/>
<path fill-rule="evenodd" clip-rule="evenodd" d="M1.44608 11.1177C1.86758 10.7082 2.43158 10.4802 3.01508 10.4802C3.07508 10.4802 3.13508 10.4817 3.19508 10.4877C6.04208 10.7142 8.05658 12.7842 8.20808 15.6372C8.24108 16.2852 7.99508 16.9152 7.53008 17.3682C7.10858 17.7777 6.54458 18.0057 5.96108 18.0057C5.90108 18.0057 5.84108 18.0027 5.78108 17.9982C2.93408 17.7702 0.919577 15.7017 0.768077 12.8487C0.735077 12.2007 0.981077 11.5707 1.44608 11.1177ZM3.0151 12.7302C4.7191 12.8667 5.8696 14.0487 5.9611 15.7557C4.2571 15.6192 3.1066 14.4372 3.0151 12.7302Z" fill="#323232"/>
<path fill-rule="evenodd" clip-rule="evenodd" d="M7.77007 2.73438C8.19757 2.25138 8.81257 1.97388 9.45757 1.97388H9.46657C10.1146 1.97688 10.7311 2.25888 11.1571 2.75088C13.0591 4.94088 13.0471 7.87488 11.1271 10.0499C10.6996 10.5329 10.0846 10.8104 9.43957 10.8104H9.43057C8.78107 10.8074 8.16607 10.5254 7.74007 10.0349C5.83807 7.84488 5.85007 4.91088 7.77007 2.73438ZM9.45761 4.22388C10.6081 5.54988 10.6006 7.24338 9.43961 8.56038C8.28911 7.23438 8.29511 5.54088 9.45761 4.22388Z" fill="#323232"/>
<path fill-rule="evenodd" clip-rule="evenodd" d="M20.8305 27.2595C21.255 26.832 21.8295 26.5935 22.428 26.5935C22.4745 26.5935 22.521 26.595 22.5675 26.598C25.3965 26.7735 27.4305 28.791 27.63 31.617C27.6765 32.2635 27.441 32.8995 26.9835 33.36C26.559 33.7875 25.9845 34.026 25.386 34.026C25.3395 34.026 25.293 34.0245 25.2465 34.0215C22.4175 33.846 20.3835 31.8285 20.184 29.0025C20.1375 28.356 20.373 27.72 20.8305 27.2595ZM22.4281 28.8435C24.1111 28.9485 25.2661 30.0945 25.3846 31.776C23.7016 31.671 22.5466 30.525 22.4281 28.8435Z" fill="#323232"/>
<path fill-rule="evenodd" clip-rule="evenodd" d="M26.883 22.0679C27.9195 21.1679 29.1465 20.6924 30.432 20.6924C31.7325 20.6924 32.97 21.1784 34.011 22.0979C34.497 22.5269 34.7745 23.1464 34.7715 23.7944C34.7685 24.4439 34.4865 25.0604 33.996 25.4849C32.9595 26.3849 31.7325 26.8604 30.447 26.8604C29.1465 26.8604 27.909 26.3744 26.868 25.4549C26.382 25.0259 26.1045 24.4064 26.1075 23.7584C26.1105 23.1089 26.3925 22.4924 26.883 22.0679ZM32.523 23.7839C31.887 23.2229 31.1595 22.9424 30.432 22.9424C29.712 22.9424 28.9905 23.2169 28.3575 23.7674C28.9935 24.3284 29.721 24.6089 30.4485 24.6089C31.1685 24.6089 31.89 24.3329 32.523 23.7839Z" fill="#323232"/>
<path fill-rule="evenodd" clip-rule="evenodd" d="M32.8048 10.4877C32.8648 10.4832 32.9248 10.4802 32.9848 10.4802C33.5683 10.4802 34.1323 10.7067 34.5538 11.1177C35.0188 11.5692 35.2663 12.2007 35.2318 12.8487C35.0803 15.7017 33.0658 17.7702 30.2188 17.9982C30.1588 18.0027 30.0988 18.0057 30.0388 18.0057C29.4553 18.0057 28.8913 17.7792 28.4698 17.3682C28.0048 16.9167 27.7573 16.2852 27.7918 15.6372C27.9433 12.7842 29.9578 10.7157 32.8048 10.4877ZM32.9847 12.7302C32.8947 14.4372 31.7427 15.6192 30.0387 15.7557C30.1287 14.0487 31.2807 12.8667 32.9847 12.7302Z" fill="#323232"/>
<path fill-rule="evenodd" clip-rule="evenodd" d="M26.5336 1.97388H26.5426C27.1876 1.97388 27.8026 2.25138 28.2301 2.73438C30.1501 4.90938 30.1621 7.84188 28.2601 10.0334C27.8341 10.5239 27.2176 10.8059 26.5696 10.8089H26.5606C25.9141 10.8089 25.3006 10.5329 24.8731 10.0484C22.9531 7.87338 22.9411 4.94088 24.8431 2.74938C25.2691 2.25888 25.8856 1.97688 26.5336 1.97388ZM26.5427 4.22388C27.7037 5.53938 27.7112 7.23438 26.5607 8.55888C25.3997 7.24338 25.3922 5.54988 26.5427 4.22388Z" fill="#323232"/>
</svg>
