<svg width="14" height="16" viewBox="0 0 14 16" fill="none" xmlns="http://www.w3.org/2000/svg">
<path d="M6.99998 12.6666C7.13183 12.6666 7.26073 12.6275 7.37036 12.5543C7.47999 12.481 7.56544 12.3769 7.6159 12.2551C7.66636 12.1333 7.67956 11.9992 7.65384 11.8699C7.62811 11.7406 7.56462 11.6218 7.47138 11.5286C7.37815 11.4353 7.25936 11.3718 7.13004 11.3461C7.00072 11.3204 6.86667 11.3336 6.74486 11.384C6.62304 11.4345 6.51892 11.5199 6.44567 11.6296C6.37241 11.7392 6.33331 11.8681 6.33331 12C6.33331 12.1768 6.40355 12.3463 6.52858 12.4714C6.6536 12.5964 6.82317 12.6666 6.99998 12.6666ZM10.3333 12.6666C10.4652 12.6666 10.5941 12.6275 10.7037 12.5543C10.8133 12.481 10.8988 12.3769 10.9492 12.2551C10.9997 12.1333 11.0129 11.9992 10.9872 11.8699C10.9614 11.7406 10.898 11.6218 10.8047 11.5286C10.7115 11.4353 10.5927 11.3718 10.4634 11.3461C10.3341 11.3204 10.2 11.3336 10.0782 11.384C9.95637 11.4345 9.85225 11.5199 9.779 11.6296C9.70575 11.7392 9.66665 11.8681 9.66665 12C9.66665 12.1768 9.73688 12.3463 9.86191 12.4714C9.98693 12.5964 10.1565 12.6666 10.3333 12.6666ZM10.3333 9.99996C10.4652 9.99996 10.5941 9.96086 10.7037 9.8876C10.8133 9.81435 10.8988 9.71023 10.9492 9.58841C10.9997 9.4666 11.0129 9.33255 10.9872 9.20323C10.9614 9.07391 10.898 8.95512 10.8047 8.86189C10.7115 8.76865 10.5927 8.70516 10.4634 8.67943C10.3341 8.65371 10.2 8.66691 10.0782 8.71737C9.95637 8.76783 9.85225 8.85328 9.779 8.96291C9.70575 9.07254 9.66665 9.20144 9.66665 9.33329C9.66665 9.5101 9.73688 9.67967 9.86191 9.8047C9.98693 9.92972 10.1565 9.99996 10.3333 9.99996ZM6.99998 9.99996C7.13183 9.99996 7.26073 9.96086 7.37036 9.8876C7.47999 9.81435 7.56544 9.71023 7.6159 9.58841C7.66636 9.4666 7.67956 9.33255 7.65384 9.20323C7.62811 9.07391 7.56462 8.95512 7.47138 8.86189C7.37815 8.76865 7.25936 8.70516 7.13004 8.67943C7.00072 8.65371 6.86667 8.66691 6.74486 8.71737C6.62304 8.76783 6.51892 8.85328 6.44567 8.96291C6.37241 9.07254 6.33331 9.20144 6.33331 9.33329C6.33331 9.5101 6.40355 9.67967 6.52858 9.8047C6.6536 9.92972 6.82317 9.99996 6.99998 9.99996ZM11.6666 1.99996H11V1.33329C11 1.15648 10.9297 0.986912 10.8047 0.861888C10.6797 0.736864 10.5101 0.666626 10.3333 0.666626C10.1565 0.666626 9.98693 0.736864 9.86191 0.861888C9.73688 0.986912 9.66665 1.15648 9.66665 1.33329V1.99996H4.33331V1.33329C4.33331 1.15648 4.26308 0.986912 4.13805 0.861888C4.01303 0.736864 3.84346 0.666626 3.66665 0.666626C3.48984 0.666626 3.32027 0.736864 3.19524 0.861888C3.07022 0.986912 2.99998 1.15648 2.99998 1.33329V1.99996H2.33331C1.80288 1.99996 1.29417 2.21067 0.9191 2.58575C0.544027 2.96082 0.333313 3.46953 0.333313 3.99996V13.3333C0.333313 13.8637 0.544027 14.3724 0.9191 14.7475C1.29417 15.1226 1.80288 15.3333 2.33331 15.3333H11.6666C12.1971 15.3333 12.7058 15.1226 13.0809 14.7475C13.4559 14.3724 13.6666 13.8637 13.6666 13.3333V3.99996C13.6666 3.46953 13.4559 2.96082 13.0809 2.58575C12.7058 2.21067 12.1971 1.99996 11.6666 1.99996ZM12.3333 13.3333C12.3333 13.5101 12.2631 13.6797 12.1381 13.8047C12.013 13.9297 11.8435 14 11.6666 14H2.33331C2.1565 14 1.98693 13.9297 1.86191 13.8047C1.73688 13.6797 1.66665 13.5101 1.66665 13.3333V7.33329H12.3333V13.3333ZM12.3333 5.99996H1.66665V3.99996C1.66665 3.82315 1.73688 3.65358 1.86191 3.52855C1.98693 3.40353 2.1565 3.33329 2.33331 3.33329H2.99998V3.99996C2.99998 4.17677 3.07022 4.34634 3.19524 4.47136C3.32027 4.59639 3.48984 4.66663 3.66665 4.66663C3.84346 4.66663 4.01303 4.59639 4.13805 4.47136C4.26308 4.34634 4.33331 4.17677 4.33331 3.99996V3.33329H9.66665V3.99996C9.66665 4.17677 9.73688 4.34634 9.86191 4.47136C9.98693 4.59639 10.1565 4.66663 10.3333 4.66663C10.5101 4.66663 10.6797 4.59639 10.8047 4.47136C10.9297 4.34634 11 4.17677 11 3.99996V3.33329H11.6666C11.8435 3.33329 12.013 3.40353 12.1381 3.52855C12.2631 3.65358 12.3333 3.82315 12.3333 3.99996V5.99996ZM3.66665 9.99996C3.7985 9.99996 3.92739 9.96086 4.03703 9.8876C4.14666 9.81435 4.23211 9.71023 4.28257 9.58841C4.33302 9.4666 4.34623 9.33255 4.3205 9.20323C4.29478 9.07391 4.23129 8.95512 4.13805 8.86189C4.04482 8.76865 3.92603 8.70516 3.79671 8.67943C3.66739 8.65371 3.53334 8.66691 3.41152 8.71737C3.28971 8.76783 3.18559 8.85328 3.11233 8.96291C3.03908 9.07254 2.99998 9.20144 2.99998 9.33329C2.99998 9.5101 3.07022 9.67967 3.19524 9.8047C3.32027 9.92972 3.48984 9.99996 3.66665 9.99996ZM3.66665 12.6666C3.7985 12.6666 3.92739 12.6275 4.03703 12.5543C4.14666 12.481 4.23211 12.3769 4.28257 12.2551C4.33302 12.1333 4.34623 11.9992 4.3205 11.8699C4.29478 11.7406 4.23129 11.6218 4.13805 11.5286C4.04482 11.4353 3.92603 11.3718 3.79671 11.3461C3.66739 11.3204 3.53334 11.3336 3.41152 11.384C3.28971 11.4345 3.18559 11.5199 3.11233 11.6296C3.03908 11.7392 2.99998 11.8681 2.99998 12C2.99998 12.1768 3.07022 12.3463 3.19524 12.4714C3.32027 12.5964 3.48984 12.6666 3.66665 12.6666Z" fill="currentColor"/>
</svg>
