<svg width="14" height="14" viewBox="0 0 14 14" fill="none" xmlns="http://www.w3.org/2000/svg">
<path d="M8.81338 4.85999L5.95338 7.72666L4.85338 6.62666C4.79361 6.55687 4.72007 6.50019 4.63736 6.46018C4.55465 6.42016 4.46456 6.39768 4.37275 6.39413C4.28093 6.39058 4.18938 6.40605 4.10383 6.43957C4.01828 6.47309 3.94058 6.52392 3.87561 6.58889C3.81064 6.65386 3.7598 6.73156 3.72628 6.81711C3.69277 6.90266 3.6773 6.99422 3.68084 7.08603C3.68439 7.17784 3.70688 7.26793 3.74689 7.35064C3.78691 7.43335 3.84359 7.5069 3.91338 7.56666L5.48004 9.14C5.54234 9.20178 5.61621 9.25067 5.69744 9.28384C5.77866 9.31702 5.86564 9.33384 5.95338 9.33333C6.12827 9.33259 6.29587 9.26316 6.42004 9.14L9.75338 5.80666C9.81586 5.74469 9.86546 5.67095 9.8993 5.58971C9.93315 5.50847 9.95058 5.42134 9.95058 5.33333C9.95058 5.24532 9.93315 5.15818 9.8993 5.07694C9.86546 4.9957 9.81586 4.92197 9.75338 4.85999C9.62847 4.73583 9.4595 4.66613 9.28338 4.66613C9.10725 4.66613 8.93828 4.73583 8.81338 4.85999ZM7.00004 0.333328C5.6815 0.333328 4.39257 0.724321 3.29624 1.45686C2.19991 2.18941 1.34543 3.2306 0.840847 4.44877C0.336263 5.66695 0.20424 7.00739 0.461475 8.3006C0.71871 9.5938 1.35365 10.7817 2.286 11.714C3.21835 12.6464 4.40623 13.2813 5.69944 13.5386C6.99265 13.7958 8.33309 13.6638 9.55127 13.1592C10.7694 12.6546 11.8106 11.8001 12.5432 10.7038C13.2757 9.60747 13.6667 8.31854 13.6667 7C13.6667 6.12452 13.4943 5.25761 13.1592 4.44877C12.8242 3.63993 12.3331 2.90501 11.7141 2.28595C11.095 1.66689 10.3601 1.17583 9.55127 0.840798C8.74243 0.505767 7.87552 0.333328 7.00004 0.333328ZM7.00004 12.3333C5.94521 12.3333 4.91406 12.0205 4.037 11.4345C3.15994 10.8485 2.47635 10.0155 2.07269 9.04097C1.66902 8.06643 1.5634 6.99408 1.76919 5.95951C1.97498 4.92495 2.48293 3.97464 3.22881 3.22876C3.97469 2.48288 4.925 1.97493 5.95956 1.76914C6.99413 1.56335 8.06648 1.66897 9.04102 2.07264C10.0156 2.47631 10.8485 3.15989 11.4345 4.03695C12.0206 4.91402 12.3334 5.94516 12.3334 7C12.3334 8.41448 11.7715 9.77104 10.7713 10.7712C9.77109 11.7714 8.41453 12.3333 7.00004 12.3333Z" fill="#9BABC5"/>
</svg>
