<svg width="14" height="14" viewBox="0 0 14 14" fill="none" xmlns="http://www.w3.org/2000/svg">
<path d="M11.6667 2.66664H7.48004L7.26671 1.99997C7.12841 1.60879 6.87187 1.27031 6.53264 1.03141C6.19341 0.79252 5.78828 0.665041 5.37337 0.666641H2.33337C1.80294 0.666641 1.29423 0.877355 0.919161 1.25243C0.544088 1.6275 0.333374 2.13621 0.333374 2.66664V11.3333C0.333374 11.8637 0.544088 12.3724 0.919161 12.7475C1.29423 13.1226 1.80294 13.3333 2.33337 13.3333H11.6667C12.1971 13.3333 12.7058 13.1226 13.0809 12.7475C13.456 12.3724 13.6667 11.8637 13.6667 11.3333V4.66664C13.6667 4.13621 13.456 3.6275 13.0809 3.25243C12.7058 2.87735 12.1971 2.66664 11.6667 2.66664ZM12.3334 11.3333C12.3334 11.5101 12.2631 11.6797 12.1381 11.8047C12.0131 11.9297 11.8435 12 11.6667 12H2.33337C2.15656 12 1.98699 11.9297 1.86197 11.8047C1.73695 11.6797 1.66671 11.5101 1.66671 11.3333V2.66664C1.66671 2.48983 1.73695 2.32026 1.86197 2.19524C1.98699 2.07021 2.15656 1.99997 2.33337 1.99997H5.37337C5.51314 1.99961 5.64948 2.04319 5.76313 2.12454C5.87678 2.20588 5.96198 2.32089 6.00671 2.45331L6.36671 3.54664C6.41143 3.67906 6.49664 3.79406 6.61029 3.87541C6.72394 3.95676 6.86028 4.00034 7.00004 3.99997H11.6667C11.8435 3.99997 12.0131 4.07021 12.1381 4.19524C12.2631 4.32026 12.3334 4.48983 12.3334 4.66664V11.3333Z" fill="#2F45C5"/>
</svg>
