<svg width="14" height="8" viewBox="0 0 14 8" fill="none" xmlns="http://www.w3.org/2000/svg">
<path d="M1.47335 6.86C1.40994 6.79931 1.33518 6.75173 1.25335 6.72C1.09104 6.65332 0.908987 6.65332 0.746679 6.72C0.664845 6.75173 0.590082 6.79931 0.526679 6.86C0.465986 6.9234 0.418409 6.99817 0.386679 7.08C0.335626 7.20141 0.321678 7.33522 0.346594 7.46454C0.37151 7.59387 0.434174 7.71292 0.526679 7.80667C0.59148 7.86555 0.665889 7.91291 0.746679 7.94667C0.826479 7.98194 0.912765 8.00016 1.00001 8.00016C1.08726 8.00016 1.17355 7.98194 1.25335 7.94667C1.33414 7.91291 1.40855 7.86555 1.47335 7.80667C1.56585 7.71292 1.62852 7.59387 1.65343 7.46454C1.67835 7.33522 1.6644 7.20141 1.61335 7.08C1.58162 6.99817 1.53404 6.9234 1.47335 6.86ZM3.66668 1.33333H13C13.1768 1.33333 13.3464 1.2631 13.4714 1.13807C13.5964 1.01305 13.6667 0.843478 13.6667 0.666667C13.6667 0.489856 13.5964 0.320287 13.4714 0.195262C13.3464 0.070238 13.1768 0 13 0H3.66668C3.48987 0 3.3203 0.070238 3.19527 0.195262C3.07025 0.320287 3.00001 0.489856 3.00001 0.666667C3.00001 0.843478 3.07025 1.01305 3.19527 1.13807C3.3203 1.2631 3.48987 1.33333 3.66668 1.33333ZM1.47335 3.52667C1.3796 3.43416 1.26055 3.3715 1.13122 3.34658C1.0019 3.32167 0.868086 3.33561 0.746679 3.38667C0.665889 3.42043 0.59148 3.46778 0.526679 3.52667C0.465986 3.59007 0.418409 3.66483 0.386679 3.74667C0.351409 3.82647 0.333191 3.91275 0.333191 4C0.333191 4.08725 0.351409 4.17353 0.386679 4.25333C0.42044 4.33412 0.467792 4.40853 0.526679 4.47333C0.59148 4.53222 0.665889 4.57957 0.746679 4.61333C0.826479 4.6486 0.912765 4.66682 1.00001 4.66682C1.08726 4.66682 1.17355 4.6486 1.25335 4.61333C1.33414 4.57957 1.40855 4.53222 1.47335 4.47333C1.53223 4.40853 1.57958 4.33412 1.61335 4.25333C1.64862 4.17353 1.66683 4.08725 1.66683 4C1.66683 3.91275 1.64862 3.82647 1.61335 3.74667C1.58162 3.66483 1.53404 3.59007 1.47335 3.52667ZM13 3.33333H3.66668C3.48987 3.33333 3.3203 3.40357 3.19527 3.5286C3.07025 3.65362 3.00001 3.82319 3.00001 4C3.00001 4.17681 3.07025 4.34638 3.19527 4.4714C3.3203 4.59643 3.48987 4.66667 3.66668 4.66667H13C13.1768 4.66667 13.3464 4.59643 13.4714 4.4714C13.5964 4.34638 13.6667 4.17681 13.6667 4C13.6667 3.82319 13.5964 3.65362 13.4714 3.5286C13.3464 3.40357 13.1768 3.33333 13 3.33333ZM1.47335 0.193333C1.40994 0.13264 1.33518 0.0850629 1.25335 0.0533333C1.13194 0.00228033 0.99813 -0.011668 0.868804 0.0132481C0.739477 0.0381642 0.620428 0.100828 0.526679 0.193333C0.467792 0.258134 0.42044 0.332543 0.386679 0.413333C0.351409 0.493134 0.333191 0.579419 0.333191 0.666667C0.333191 0.753914 0.351409 0.8402 0.386679 0.92C0.42044 1.00079 0.467792 1.0752 0.526679 1.14C0.59148 1.19889 0.665889 1.24624 0.746679 1.28C0.868086 1.33105 1.0019 1.345 1.13122 1.32009C1.26055 1.29517 1.3796 1.23251 1.47335 1.14C1.53223 1.0752 1.57958 1.00079 1.61335 0.92C1.64862 0.8402 1.66683 0.753914 1.66683 0.666667C1.66683 0.579419 1.64862 0.493134 1.61335 0.413333C1.57958 0.332543 1.53223 0.258134 1.47335 0.193333ZM13 6.66667H3.66668C3.48987 6.66667 3.3203 6.7369 3.19527 6.86193C3.07025 6.98695 3.00001 7.15652 3.00001 7.33333C3.00001 7.51014 3.07025 7.67971 3.19527 7.80474C3.3203 7.92976 3.48987 8 3.66668 8H13C13.1768 8 13.3464 7.92976 13.4714 7.80474C13.5964 7.67971 13.6667 7.51014 13.6667 7.33333C13.6667 7.15652 13.5964 6.98695 13.4714 6.86193C13.3464 6.7369 13.1768 6.66667 13 6.66667Z" fill="currentColor"/>
</svg>
