<svg width="12" height="8" viewBox="0 0 12 8" fill="none" xmlns="http://www.w3.org/2000/svg">
<path d="M11.28 2.74663C11.2483 2.66479 11.2007 2.59003 11.14 2.52663L9.14002 0.526628C9.07786 0.464469 9.00407 0.415161 8.92285 0.381521C8.84164 0.347881 8.75459 0.330566 8.66669 0.330566C8.48915 0.330566 8.31889 0.401092 8.19335 0.526628C8.13119 0.588787 8.08189 0.66258 8.04825 0.743795C8.01461 0.825009 7.99729 0.912055 7.99729 0.999961C7.99729 1.1775 8.06782 1.34776 8.19335 1.47329L9.06002 2.33329H2.66669C2.13625 2.33329 1.62755 2.54401 1.25247 2.91908C0.877401 3.29415 0.666687 3.80286 0.666687 4.33329V6.99996C0.666687 7.17677 0.736925 7.34634 0.861949 7.47136C0.986974 7.59639 1.15654 7.66663 1.33335 7.66663C1.51016 7.66663 1.67973 7.59639 1.80476 7.47136C1.92978 7.34634 2.00002 7.17677 2.00002 6.99996V4.33329C2.00002 4.15648 2.07026 3.98691 2.19528 3.86189C2.32031 3.73687 2.48988 3.66663 2.66669 3.66663H9.06002L8.19335 4.52663C8.13087 4.5886 8.08127 4.66234 8.04743 4.74358C8.01358 4.82482 7.99615 4.91195 7.99615 4.99996C7.99615 5.08797 8.01358 5.17511 8.04743 5.25634C8.08127 5.33758 8.13087 5.41132 8.19335 5.47329C8.25533 5.53578 8.32906 5.58538 8.4103 5.61922C8.49154 5.65307 8.57868 5.67049 8.66669 5.67049C8.75469 5.67049 8.84183 5.65307 8.92307 5.61922C9.00431 5.58538 9.07804 5.53578 9.14002 5.47329L11.14 3.47329C11.2007 3.40989 11.2483 3.33513 11.28 3.25329C11.3467 3.09099 11.3467 2.90893 11.28 2.74663Z" fill="white"/>
</svg>
