<svg width="14" height="14" viewBox="0 0 14 14" fill="none" xmlns="http://www.w3.org/2000/svg">
<path d="M11.6667 7H7.00004V2.33333C7.00004 1.93333 6.73337 1.66666 6.33337 1.66666C3.00004 1.66666 0.333374 4.33333 0.333374 7.66666C0.333374 11 3.00004 13.6667 6.33337 13.6667C9.66671 13.6667 12.3334 11 12.3334 7.66666C12.3334 7.26666 12.0667 7 11.6667 7ZM7.00004 12.2667C4.46671 12.6667 2.06671 10.8667 1.73337 8.33333C1.33337 5.79999 3.13337 3.39999 5.66671 3.06666V7.66666C5.66671 8.06666 5.93337 8.33333 6.33337 8.33333H10.9334C10.6667 10.4 9.06671 12 7.00004 12.2667ZM9.00004 0.333328C8.60004 0.333328 8.33337 0.599995 8.33337 0.999995V5C8.33337 5.39999 8.60004 5.66666 9.00004 5.66666H13C13.4 5.66666 13.6667 5.39999 13.6667 5C13.6667 2.39999 11.6 0.333328 9.00004 0.333328ZM9.66671 4.33333V1.73333C11 1.99999 12 2.99999 12.2667 4.33333H9.66671Z" fill="#9BABC5"/>
</svg>
