<svg width="12" height="12" viewBox="0 0 12 12" fill="none" xmlns="http://www.w3.org/2000/svg">
<path d="M10.6665 5.33332H6.66655V1.33332C6.66655 1.15651 6.59631 0.986943 6.47129 0.861919C6.34626 0.736895 6.17669 0.666656 5.99988 0.666656C5.82307 0.666656 5.6535 0.736895 5.52848 0.861919C5.40345 0.986943 5.33322 1.15651 5.33322 1.33332V5.33332H1.33322C1.15641 5.33332 0.986836 5.40356 0.861812 5.52858C0.736788 5.65361 0.66655 5.82318 0.66655 5.99999C0.66655 6.1768 0.736788 6.34637 0.861812 6.47139C0.986836 6.59642 1.15641 6.66666 1.33322 6.66666H5.33322V10.6667C5.33322 10.8435 5.40345 11.013 5.52848 11.1381C5.6535 11.2631 5.82307 11.3333 5.99988 11.3333C6.17669 11.3333 6.34626 11.2631 6.47129 11.1381C6.59631 11.013 6.66655 10.8435 6.66655 10.6667V6.66666H10.6665C10.8434 6.66666 11.0129 6.59642 11.138 6.47139C11.263 6.34637 11.3332 6.1768 11.3332 5.99999C11.3332 5.82318 11.263 5.65361 11.138 5.52858C11.0129 5.40356 10.8434 5.33332 10.6665 5.33332Z" fill="currentColor"/>
</svg>
