<svg width="20" height="20" viewBox="0 0 20 20" fill="none" xmlns="http://www.w3.org/2000/svg">
<path fill-rule="evenodd" clip-rule="evenodd" d="M9.99988 8.33333C9.0794 8.33333 8.33321 9.07952 8.33321 10C8.33321 10.9205 9.0794 11.6667 9.99988 11.6667C10.9204 11.6667 11.6665 10.9205 11.6665 10C11.6665 9.07952 10.9204 8.33333 9.99988 8.33333ZM6.66654 10C6.66654 8.15905 8.15893 6.66667 9.99988 6.66667C11.8408 6.66667 13.3332 8.15905 13.3332 10C13.3332 11.8409 11.8408 13.3333 9.99988 13.3333C8.15893 13.3333 6.66654 11.8409 6.66654 10Z" fill="currentColor"/>
<path fill-rule="evenodd" clip-rule="evenodd" d="M9.99988 1.66667C9.77886 1.66667 9.5669 1.75446 9.41062 1.91074C9.25434 2.06702 9.16654 2.27899 9.16654 2.5V2.64499C9.16483 3.07566 9.03721 3.49644 8.79941 3.85551C8.56161 4.21459 8.22401 4.49629 7.82815 4.66595C7.75769 4.69615 7.68356 4.71641 7.60789 4.7263C7.24819 4.85226 6.86098 4.88331 6.48405 4.81497C6.04988 4.73625 5.64925 4.52927 5.33382 4.22072L5.32725 4.21429L5.27729 4.16426C5.19989 4.08677 5.10766 4.02498 5.00649 3.98304C4.90533 3.94111 4.79689 3.91952 4.68738 3.91952C4.57787 3.91952 4.46943 3.94111 4.36826 3.98304C4.2671 4.02498 4.17519 4.08645 4.09779 4.16393L4.09714 4.16458C4.01966 4.24198 3.95819 4.33388 3.91626 4.43505C3.87432 4.53621 3.85273 4.64465 3.85273 4.75417C3.85273 4.86368 3.87432 4.97212 3.91626 5.07328C3.95819 5.17445 4.01966 5.26636 4.09714 5.34375L4.15397 5.40058C4.46251 5.71601 4.66946 6.11667 4.74818 6.55083C4.82533 6.97636 4.77582 7.41497 4.60609 7.81231C4.45145 8.21777 4.18069 8.56889 3.82742 8.82157C3.467 9.07935 3.03736 9.22274 2.59436 9.2331L2.57488 9.23333H2.49988C2.27886 9.23333 2.0669 9.32113 1.91062 9.47741C1.75434 9.63369 1.66654 9.84565 1.66654 10.0667C1.66654 10.2877 1.75434 10.4996 1.91062 10.6559C2.0669 10.8122 2.27886 10.9 2.49988 10.9H2.64487C3.07554 10.9017 3.49632 11.0293 3.85539 11.2671C4.21322 11.5041 4.49421 11.8402 4.66405 12.2343C4.84078 12.6369 4.8933 13.0831 4.81485 13.5158C4.73612 13.95 4.52914 14.3506 4.2206 14.6661L4.21417 14.6726L4.16413 14.7226C4.08665 14.8 4.02486 14.8922 3.98292 14.9934C3.94099 15.0945 3.9194 15.203 3.9194 15.3125C3.9194 15.422 3.94099 15.5305 3.98292 15.6316C4.02486 15.7328 4.08633 15.8247 4.16381 15.9021L4.16446 15.9027C4.24185 15.9802 4.33376 16.0417 4.43493 16.0836C4.53609 16.1256 4.64453 16.1471 4.75404 16.1471C4.86356 16.1471 4.972 16.1256 5.07316 16.0836C5.17433 16.0417 5.26623 15.9802 5.34363 15.9027L5.40045 15.8459C5.71589 15.5374 6.11655 15.3304 6.55071 15.2517C6.97623 15.1745 7.41484 15.2241 7.81218 15.3938C8.21765 15.5484 8.56877 15.8192 8.82144 16.1725C9.07923 16.5329 9.22262 16.9625 9.23298 17.4055L9.23321 17.425V17.5C9.23321 17.721 9.32101 17.933 9.47729 18.0893C9.63357 18.2455 9.84553 18.3333 10.0665 18.3333C10.2876 18.3333 10.4995 18.2455 10.6558 18.0893C10.8121 17.933 10.8999 17.721 10.8999 17.5V17.3583L10.8999 17.355C10.9016 16.9243 11.0292 16.5036 11.267 16.1445C11.504 15.7866 11.8401 15.5056 12.2342 15.3358C12.6368 15.1591 13.083 15.1066 13.5157 15.185C13.9499 15.2638 14.3505 15.4707 14.6659 15.7793L14.6725 15.7857L14.7225 15.8357C14.7999 15.9132 14.8921 15.975 14.9933 16.017C15.0944 16.0589 15.2029 16.0805 15.3124 16.0805C15.4219 16.0805 15.5303 16.0589 15.6315 16.017C15.7327 15.975 15.8246 15.9136 15.902 15.8361L15.9026 15.8354C15.9801 15.758 16.0416 15.6661 16.0835 15.5649C16.1254 15.4638 16.147 15.3553 16.147 15.2458C16.147 15.1363 16.1254 15.0279 16.0835 14.9267C16.0416 14.8255 15.9801 14.7336 15.9026 14.6562L15.8458 14.5994C15.5372 14.284 15.3303 13.8833 15.2516 13.4492C15.1731 13.0165 15.2256 12.5703 15.4023 12.1677C15.5722 11.7736 15.8532 11.4375 16.211 11.2005C16.5701 10.9627 16.9909 10.8351 17.4216 10.8333L17.4249 10.8333L17.4999 10.8333C17.7209 10.8333 17.9329 10.7455 18.0891 10.5893C18.2454 10.433 18.3332 10.221 18.3332 10C18.3332 9.77899 18.2454 9.56703 18.0891 9.41074C17.9329 9.25446 17.7209 9.16667 17.4999 9.16667H17.3582L17.3549 9.16666C16.9242 9.16494 16.5034 9.03733 16.1444 8.79953C15.7853 8.56173 15.5036 8.22413 15.3339 7.82828C15.3037 7.75781 15.2835 7.68368 15.2736 7.60801C15.1476 7.24831 15.1166 6.8611 15.1849 6.48417C15.2636 6.05 15.4706 5.64938 15.7792 5.33395L15.7856 5.32738L15.8356 5.27741C15.9131 5.20002 15.9749 5.10778 16.0168 5.00662C16.0588 4.90545 16.0804 4.79701 16.0804 4.6875C16.0804 4.57799 16.0588 4.46955 16.0168 4.36838C15.9749 4.26722 15.9134 4.17531 15.8359 4.09792L15.8353 4.09726C15.7579 4.01978 15.666 3.95831 15.5648 3.91638C15.4637 3.87444 15.3552 3.85286 15.2457 3.85286C15.1362 3.85286 15.0278 3.87444 14.9266 3.91638C14.8254 3.95832 14.7335 4.01978 14.6561 4.09726L14.5993 4.15409C14.2839 4.46264 13.8832 4.66958 13.449 4.7483C13.0163 4.82676 12.5701 4.77423 12.1675 4.59751C11.7734 4.42767 11.4373 4.14667 11.2003 3.78885C10.9625 3.42977 10.8349 3.009 10.8332 2.57832L10.8332 2.575V2.5C10.8332 2.27899 10.7454 2.06702 10.5891 1.91074C10.4329 1.75446 10.2209 1.66667 9.99988 1.66667ZM16.1665 12.5L16.9289 12.8365C16.8852 12.9355 16.8722 13.0453 16.8915 13.1518C16.9106 13.2571 16.9605 13.3544 17.0348 13.4314L17.0805 13.4771C17.3128 13.7092 17.4974 13.9851 17.6231 14.2885C17.7489 14.592 17.8137 14.9173 17.8137 15.2458C17.8137 15.5744 17.7489 15.8997 17.6231 16.2032C17.4973 16.5067 17.3129 16.7824 17.0805 17.0146L16.4915 16.425L17.0811 17.0139C16.8489 17.2464 16.5732 17.4308 16.2697 17.5566C15.9662 17.6824 15.6409 17.7471 15.3124 17.7471C14.9838 17.7471 14.6585 17.6824 14.355 17.5566C14.0517 17.4308 13.7761 17.2465 13.544 17.0143L13.4979 16.9682C13.421 16.8939 13.3237 16.8441 13.2184 16.825C13.1119 16.8057 13.002 16.8187 12.903 16.8624L12.8948 16.866C12.7977 16.9076 12.7149 16.9767 12.6566 17.0647C12.5985 17.1525 12.5672 17.2552 12.5665 17.3604V17.5C12.5665 18.163 12.3032 18.7989 11.8343 19.2678C11.3655 19.7366 10.7296 20 10.0665 20C9.4035 20 8.76762 19.7366 8.29878 19.2678C7.82994 18.7989 7.56654 18.163 7.56654 17.5V17.437C7.56259 17.331 7.5276 17.2284 7.46583 17.142C7.4026 17.0536 7.31424 16.9863 7.21223 16.9488C7.19575 16.9427 7.17947 16.9361 7.16341 16.9291C7.06439 16.8854 6.95456 16.8723 6.84806 16.8916C6.74272 16.9107 6.64544 16.9606 6.56846 17.0349L6.52279 17.0806C6.29068 17.3129 6.01475 17.4975 5.7114 17.6232C5.4079 17.7491 5.08258 17.8138 4.75404 17.8138C4.4255 17.8138 4.10019 17.7491 3.79669 17.6232C3.49349 17.4976 3.218 17.3134 2.98595 17.0813C2.75351 16.8491 2.56911 16.5733 2.4433 16.2698C2.31749 15.9664 2.25273 15.641 2.25273 15.3125C2.25273 14.984 2.31749 14.6586 2.4433 14.3551C2.56911 14.0517 2.75351 13.7759 2.98595 13.5437L3.03164 13.4981C3.10595 13.4211 3.15582 13.3238 3.17492 13.2185C3.19423 13.112 3.18119 13.0022 3.13749 12.9031L3.13388 12.895C3.09227 12.7979 3.02322 12.715 2.93514 12.6567C2.84741 12.5986 2.74466 12.5673 2.63946 12.5667H2.49988C1.83684 12.5667 1.20095 12.3033 0.732111 11.8344C0.26327 11.3656 -0.00012207 10.7297 -0.00012207 10.0667C-0.00012207 9.40363 0.26327 8.76774 0.732111 8.2989C1.20095 7.83006 1.83684 7.56667 2.49988 7.56667H2.56291C2.66891 7.56271 2.77147 7.52772 2.85784 7.46595C2.94624 7.40272 3.01358 7.31436 3.0511 7.21235C3.05716 7.19587 3.06374 7.17959 3.07083 7.16353C3.11453 7.06451 3.12756 6.95468 3.10825 6.84818C3.08915 6.74285 3.03928 6.64557 2.96496 6.56859L2.91928 6.52292C2.68684 6.29073 2.50244 6.01501 2.37663 5.71152C2.25082 5.40802 2.18607 5.08271 2.18607 4.75417C2.18607 4.42563 2.25082 4.10031 2.37663 3.79682C2.50239 3.49346 2.68667 3.21786 2.91896 2.98574C3.15107 2.75346 3.42667 2.56917 3.73003 2.44342C4.03352 2.31761 4.35884 2.25286 4.68738 2.25286C5.01592 2.25286 5.34123 2.31761 5.64473 2.44342C5.94822 2.56923 6.22395 2.75363 6.45613 2.98607L6.5018 3.03175C6.57878 3.10607 6.67606 3.15594 6.7814 3.17504C6.88789 3.19435 6.99773 3.18131 7.09674 3.13761C7.15011 3.11406 7.20565 3.09624 7.26244 3.08435C7.32054 3.04491 7.3707 2.99436 7.40983 2.93526C7.46793 2.84753 7.49922 2.74479 7.49988 2.63958V2.5C7.49988 1.83696 7.76327 1.20107 8.23211 0.732233C8.70095 0.263392 9.33684 0 9.99988 0C10.6629 0 11.2988 0.263392 11.7676 0.732233C12.2365 1.20107 12.4999 1.83696 12.4999 2.5V2.57292C12.5005 2.67812 12.5318 2.78087 12.5899 2.8686C12.6482 2.95667 12.7311 3.02577 12.8282 3.06738L12.8364 3.0709C12.9354 3.1146 13.0452 3.12768 13.1517 3.10837C13.257 3.08928 13.3543 3.0394 13.4313 2.96509L13.477 2.91941C13.7091 2.68696 13.9849 2.50257 14.2884 2.37676C14.5919 2.25095 14.9172 2.18619 15.2457 2.18619C15.5743 2.18619 15.8996 2.25095 16.2031 2.37676C16.5066 2.50257 16.7823 2.68697 17.0145 2.91941C17.2466 3.15145 17.4308 3.42694 17.5565 3.73015C17.6823 4.03364 17.747 4.35896 17.747 4.6875C17.747 5.01604 17.6823 5.34136 17.5565 5.64485C17.4307 5.9482 17.2464 6.22381 17.0141 6.45592L16.9681 6.50192C16.8938 6.5789 16.8439 6.67618 16.8248 6.78152C16.8055 6.88801 16.8186 6.99785 16.8623 7.09686C16.8858 7.15023 16.9036 7.20577 16.9155 7.26256C16.955 7.32066 17.0055 7.37082 17.0646 7.40996C17.1523 7.46806 17.2551 7.49934 17.3603 7.5H17.4999C18.1629 7.5 18.7988 7.76339 19.2676 8.23223C19.7365 8.70107 19.9999 9.33696 19.9999 10C19.9999 10.663 19.7365 11.2989 19.2676 11.7678C18.7988 12.2366 18.1629 12.5 17.4999 12.5H17.427C17.3218 12.5007 17.219 12.5319 17.1313 12.59C17.0432 12.6484 16.9741 12.7312 16.9325 12.8283L16.1665 12.5Z" fill="currentColor"/>
</svg>
