<svg width="18" height="16" viewBox="0 0 18 16" fill="none" xmlns="http://www.w3.org/2000/svg">
<path d="M17.3334 6.05833C17.2807 5.90591 17.185 5.77202 17.0578 5.67292C16.9306 5.57381 16.7774 5.51375 16.6167 5.5L11.875 4.80833L9.75002 0.499999C9.68178 0.359106 9.57524 0.240284 9.4426 0.157143C9.30995 0.074003 9.15657 0.0299072 9.00002 0.0299072C8.84347 0.0299072 8.69009 0.074003 8.55745 0.157143C8.4248 0.240284 8.31826 0.359106 8.25002 0.499999L6.12502 4.8L1.38336 5.5C1.22912 5.52192 1.08413 5.58663 0.964814 5.6868C0.845502 5.78696 0.756655 5.91856 0.708355 6.06667C0.664143 6.21139 0.660175 6.36543 0.696878 6.51224C0.733582 6.65906 0.80957 6.7931 0.916689 6.9L4.35836 10.2333L3.52502 14.9667C3.49527 15.1229 3.51085 15.2844 3.56992 15.432C3.62898 15.5797 3.72907 15.7074 3.85836 15.8C3.98437 15.8901 4.133 15.9433 4.28756 15.9536C4.44212 15.9639 4.5965 15.9309 4.73336 15.8583L9.00002 13.6333L13.25 15.8667C13.367 15.9326 13.4991 15.9671 13.6334 15.9667C13.8099 15.9673 13.982 15.9119 14.125 15.8083C14.2543 15.7157 14.3544 15.588 14.4135 15.4404C14.4725 15.2927 14.4881 15.1312 14.4584 14.975L13.625 10.2417L17.0667 6.90833C17.187 6.8064 17.2759 6.67242 17.3231 6.52196C17.3703 6.37149 17.3739 6.21073 17.3334 6.05833ZM12.2084 9.39167C12.1106 9.48619 12.0375 9.6032 11.9954 9.73248C11.9533 9.86175 11.9434 9.99937 11.9667 10.1333L12.5667 13.625L9.43336 11.9583C9.31279 11.8941 9.17828 11.8606 9.04169 11.8606C8.90509 11.8606 8.77059 11.8941 8.65002 11.9583L5.51669 13.625L6.11669 10.1333C6.13997 9.99937 6.13012 9.86175 6.08799 9.73248C6.04587 9.6032 5.97275 9.48619 5.87502 9.39167L3.37502 6.89167L6.88336 6.38333C7.01835 6.36455 7.14669 6.31295 7.2571 6.23304C7.36752 6.15313 7.45665 6.04736 7.51669 5.925L9.00002 2.75L10.5667 5.93333C10.6267 6.0557 10.7159 6.16147 10.8263 6.24138C10.9367 6.32128 11.065 6.37289 11.2 6.39167L14.7084 6.9L12.2084 9.39167Z" fill="#FB2B76"/>
</svg>
