<svg width="14" height="14" viewBox="0 0 14 14" fill="none" xmlns="http://www.w3.org/2000/svg">
<path d="M9.47339 4.52664C9.41141 4.46416 9.33768 4.41456 9.25644 4.38072C9.1752 4.34687 9.08806 4.32944 9.00005 4.32944C8.91205 4.32944 8.82491 4.34687 8.74367 4.38072C8.66243 4.41456 8.58869 4.46416 8.52672 4.52664L7.00005 6.05998L5.47339 4.52664C5.34785 4.40111 5.17759 4.33058 5.00005 4.33058C4.82252 4.33058 4.65226 4.40111 4.52672 4.52664C4.40118 4.65218 4.33066 4.82244 4.33066 4.99998C4.33066 5.17751 4.40118 5.34777 4.52672 5.47331L6.06005 6.99998L4.52672 8.52664C4.46423 8.58862 4.41464 8.66235 4.38079 8.74359C4.34695 8.82483 4.32952 8.91197 4.32952 8.99998C4.32952 9.08799 4.34695 9.17512 4.38079 9.25636C4.41464 9.3376 4.46423 9.41133 4.52672 9.47331C4.5887 9.5358 4.66243 9.58539 4.74367 9.61924C4.82491 9.65308 4.91205 9.67051 5.00005 9.67051C5.08806 9.67051 5.1752 9.65308 5.25644 9.61924C5.33768 9.58539 5.41141 9.5358 5.47339 9.47331L7.00005 7.93998L8.52672 9.47331C8.58869 9.5358 8.66243 9.58539 8.74367 9.61924C8.82491 9.65308 8.91205 9.67051 9.00005 9.67051C9.08806 9.67051 9.1752 9.65308 9.25644 9.61924C9.33768 9.58539 9.41141 9.5358 9.47339 9.47331C9.53587 9.41133 9.58547 9.3376 9.61931 9.25636C9.65316 9.17512 9.67059 9.08799 9.67059 8.99998C9.67059 8.91197 9.65316 8.82483 9.61931 8.74359C9.58547 8.66235 9.53587 8.58862 9.47339 8.52664L7.94005 6.99998L9.47339 5.47331C9.53587 5.41133 9.58547 5.3376 9.61931 5.25636C9.65316 5.17512 9.67059 5.08798 9.67059 4.99998C9.67059 4.91197 9.65316 4.82483 9.61931 4.74359C9.58547 4.66235 9.53587 4.58862 9.47339 4.52664ZM11.7134 2.28664C11.0984 1.64991 10.3628 1.14203 9.54942 0.792634C8.73606 0.443241 7.86126 0.259332 6.97606 0.25164C6.09087 0.243948 5.213 0.412626 4.39369 0.747832C3.57438 1.08304 2.83004 1.57806 2.20409 2.20401C1.57814 2.82996 1.08311 3.57431 0.747908 4.39362C0.412702 5.21293 0.244024 6.09079 0.251717 6.97598C0.259409 7.86118 0.443317 8.73598 0.79271 9.54934C1.1421 10.3627 1.64998 11.0983 2.28672 11.7133C2.9017 12.35 3.63733 12.8579 4.45069 13.2073C5.26405 13.5567 6.13885 13.7406 7.02404 13.7483C7.90924 13.756 8.7871 13.5873 9.60641 13.2521C10.4257 12.9169 11.1701 12.4219 11.796 11.7959C12.422 11.17 12.917 10.4256 13.2522 9.60634C13.5874 8.78703 13.7561 7.90916 13.7484 7.02397C13.7407 6.13877 13.5568 5.26397 13.2074 4.45061C12.858 3.63725 12.3501 2.90162 11.7134 2.28664ZM10.7734 10.7733C9.90141 11.6463 8.75375 12.1899 7.52592 12.3115C6.29809 12.4332 5.06606 12.1253 4.03973 11.4405C3.01341 10.7556 2.25629 9.73612 1.89737 8.55563C1.53844 7.37515 1.59992 6.10674 2.07133 4.9665C2.54273 3.82626 3.3949 2.88474 4.48265 2.30235C5.57039 1.71996 6.82642 1.53273 8.03672 1.77256C9.24703 2.01239 10.3368 2.66444 11.1202 3.61762C11.9037 4.5708 12.3324 5.76614 12.3334 6.99998C12.3358 7.70084 12.1991 8.39521 11.9313 9.0429C11.6636 9.69059 11.27 10.2787 10.7734 10.7733Z" fill="#9BABC5"/>
</svg>
